<global>
amp_veltrack=0
ampeg_release=0.45
loop_mode=loop_continuous
loop_xfade_curve=EqP

<group>
group_label=PP
lpc_hicc1=42
lpc_locc1=0

<region>
hikey=g#3
hivel=127
lokey=g3
loop_end=188848
loop_start=81543
loop_xfade=18047
lovel=0
lpc=668kQzLu0sM7crZD8qZHw0CKIUO29xPCVwITwqiJgUG/LyTCopGqQaD5o0F1TrnBJcUnQXWWfkGiOHXBaEb2wAV65b9/lPg/KdBHQcEQE0GCznTBbCkyQP3yKcH4tQlB
lpc_rms=-29.86
pitch_keycenter=g#3
sample=Tuba_flatter_PP_G#3.opus

<region>
hikey=g#2
hivel=127
lokey=g2
loop_end=178364
loop_start=77016
loop_xfade=17045
lovel=0
lpc=yPp4Q6DqDMTEDZdDC+pAQfstUUJ8my5AoAhCwnvZhcEjwvnA5aYIQaP5e0GuceO+KwsIQAwzC7+6N1rB8ru4wJ/S0UC37wxB7OjaQLozSz/MkC/BfQdSwIBtxr9hMLBA
lpc_rms=-32.35
pitch_keycenter=g#2
sample=Tuba_flatter_PP_G#2.opus

<region>
hikey=g#1
hivel=127
lokey=g1
loop_end=187359
loop_start=80900
loop_xfade=17904
lovel=0
lpc=gXhzQ7LKBsQmlYBDTa2TQorPK0HLsKzBgMXnwUuTp0DUqZC/kkK/wKrAKUB1h1tBQuhDwHJ90MDXzgvBswuqv9Z9tj/9YQ9ByIYOQTeMm78MMq+/YJuDv8Ynt8HsMYhB
lpc_rms=-33.59
pitch_keycenter=g#1
sample=Tuba_flatter_PP_G#1.opus

<region>
hikey=f#3
hivel=127
lokey=f3
loop_end=184698
loop_start=79751
loop_xfade=17650
lovel=0
lpc=gc8rQ7Nh8sOii+pD4rZjwx9wI0MK5cjCDdqowFJ1lEH1xvPBY/4QQsRHNsDwb1LBwOfFQPVAwECX+QXBN7VzwGkboUAp2M49LowbQUWquL+dWprBA429QAm5Q0EYS8rA
lpc_rms=-28.65
pitch_keycenter=f#3
sample=Tuba_flatter_PP_F#3.opus

<region>
hikey=f#2
hivel=127
lokey=f2
loop_end=189420
loop_start=81790
loop_xfade=18101
lovel=0
lpc=5FV5Q6lhEcRpqatDut/KwEDcOEI4XUbAfHVQwoSHKcHdH8g/2zCuQDRKJEEui+FA/8RDQHkhgMAxPW/B7F4nwWK0LUHYKLFARH48QXiMMsCVxyXBLp01wJddXEDvf64/
lpc_rms=-31.87
pitch_keycenter=f#2
sample=Tuba_flatter_PP_F#2.opus

<region>
hikey=f#1
hivel=127
lokey=f1
loop_end=189623
loop_start=81878
loop_xfade=18121
lovel=0
lpc=bYqLQ3Ks/8Mjl/BC9J6QQvsZOUJI1NxBgOPWQANyzj7QRp3BxVxQwWd8TsHfU73AihILwIiyScDWOMA/FCa0QJOoKEFKyO9A3KY1QGxprsC7j7c+Ar77wHQAc8GKPX1B
lpc_rms=-33.97
pitch_keycenter=f#1
sample=Tuba_flatter_PP_F#1.opus

<region>
hikey=e3
hivel=127
lokey=d#3
loop_end=184374
loop_start=79611
loop_xfade=17619
lovel=0
lpc=1a2HQ4WoJMTLq/1D9V6Aw3mFU0MAV7ZAHQiWwmmnN0HKg/PBZlF9vzd7gkGmH9fAJUckwL8nT8BuiOZAHVDHvzVvd0Cj6QNBNT1VQQ37usBxtcfBcrvTQJykAcDhYcNA
lpc_rms=-27.33
pitch_keycenter=e3
sample=Tuba_flatter_PP_E3.opus

<region>
hikey=e2
hivel=127
lokey=d#2
loop_end=188055
loop_start=81201
loop_xfade=17971
lovel=0
lpc=x+WOQ3zXHsTX8JxD94nkQSRAjkKcCipBJONxwshY28ET+UPBcnNEQQjKhkErGB1BSIcRwZ3MxsCiwOU+tJm5wLGjU8BCy71Aoz58QfuQt0CMa4nB6g4HwLxVqMC79/lA
lpc_rms=-31.51
pitch_keycenter=e2
sample=Tuba_flatter_PP_E2.opus

<region>
hivel=127
key=e1
loop_end=191968
loop_start=82890
loop_xfade=18345
lovel=0
lpc=iE1SQ/n9rsOaeYi/Td/KQvz6gkLpXQpC9LCHwXEo3MEv2rXBSvWkwEwIlUDm7dVAbQxlQC2598AMn7TA4E/CvXl76D+iLVdBikc1QTUu1T+8r+fAuNqRwcjKPsGonZtB
lpc_rms=-38.89
sample=Tuba_flatter_PP_E1.opus

<region>
hikey=d3
hivel=127
lokey=c#3
loop_end=170405
loop_start=73579
loop_xfade=16284
lovel=0
lpc=uzbpQxJFmcQ4gYZETG8RxJ0+60NWU6/C3YgIw8meSUHdnDLCVpv4QQnmPUJmtCLBkcQ+wZPajsFCqSPBI1HewMImG0J1Dz1AfonwvtQrqUG4yF7C4dBHQka5YcK14O1B
lpc_rms=-21.41
pitch_keycenter=d3
sample=Tuba_flatter_PP_D3.opus

<region>
hikey=d2
hivel=127
lokey=c#2
loop_end=188034
loop_start=81192
loop_xfade=17969
lovel=0
lpc=2WL9Q4nXhsRIktVDnWgNQ1e2CUPiZLrAgJK4wj+agMJm+rjB0dXTQbrBvUEwkhRCyW14wZi0osFoeaPBpQg2QHqql0D8kvJAfLKGQeYXY0EcTgLBngeqwW1QvcGX9NpB
lpc_rms=-27.45
pitch_keycenter=d2
sample=Tuba_flatter_PP_D2.opus

<region>
hikey=c3
hivel=127
lokey=b2
loop_end=176866
loop_start=76369
loop_xfade=16902
lovel=0
lpc=RlJvQ4xtFsQgiPxDNyyEw7dMQUM78kjBXySNwvOHyUH0iyDCUKdzQaVN2UEXlYLBDbvvQB98Kz9hf77BMoRAQDolEkEO35NABZpwQdg1I8C+1svBebuPQTleQcGIStJA
lpc_rms=-28.11
pitch_keycenter=c3
sample=Tuba_flatter_PP_C3.opus

<region>
hikey=c2
hivel=127
lokey=b1
loop_end=188044
loop_start=81196
loop_xfade=17970
lovel=0
lpc=WyiCQzuQC8QN5VBDcwjzQuUGKkKQdYvBcLVZwo6FpMEUUOm/daAkQQH/GUGgQnVBPX/SwIJmWMFmXAnBADh6QIl33EDuf5hAYgyoQMHVUEA5S/XAKKPqwO/ol8B8oQpB
lpc_rms=-33.65
pitch_keycenter=c2
sample=Tuba_flatter_PP_C2.opus

<region>
hikey=a#3
hivel=127
lokey=a3
loop_end=170001
loop_start=73405
loop_xfade=16246
lovel=0
lpc=qbCVQ33eO8TWuCZEBtUBxGrxCUQ0mWjD0CDOQRQjDcKKwYDCuvlSQkN8BUK3Pe/BrGWbwdHu8UGOT1LB3kDCwJCIFkHNAKrAphk3QtdYycEP8frBaGAQQhWSJMLmqr1B
lpc_rms=-21.18
pitch_keycenter=A#3
sample=Tuba_flatter_PP_A#3.opus

<region>
hikey=a#2
hivel=127
lokey=a2
loop_end=182496
loop_start=78800
loop_xfade=17440
lovel=0
lpc=bkCZQwOrMMTg4d1DJbnUwo+D80IfZphBTuSGwlgVgcGMD4/Br4lfQSpjrUFACybBIg/yQFhkjcGRm8s/jKDnv2IOOEF1OeXA3LZUQdQtoUAVFkLBhfaswHQjzsDYmCBB
lpc_rms=-28.74
pitch_keycenter=a#2
sample=Tuba_flatter_PP_A#2.opus

<region>
hikey=a#1
hivel=127
lokey=a1
loop_end=189895
loop_start=81995
loop_xfade=18147
lovel=0
lpc=W+mJQ2f7HcSEiKlDs2QuQoKJAULcVzbB0vJzwkxbTcDQ9g5BUaVOQAkwjUFghOdAsVmfwT7mtsE06YNBhcxGQE3nV79TLPNA3xUCQSxL3sC+uTLAre5DvwAeQ8EKkCxB
lpc_rms=-31.75
pitch_keycenter=a#1
sample=Tuba_flatter_PP_A#1.opus

<group>
group_label=MF
lpc_hicc1=84
lpc_locc1=43

<region>
hikey=g#3
hivel=127
lokey=g3
loop_end=182810
loop_start=78936
loop_xfade=17470
lovel=0
lpc=ge4aQwzaycOvurdDzppZw51gJUMHwg3CnNDSwf6shj8tggPCXm6MQR9tdkFey+bA711FP1f5SkEa+E/BPe5gwMc4zD4ISR/AIYo1QXAMMkHi5n7BRXjbwE4Kf0ABrk9A
lpc_rms=-29.10
pitch_keycenter=g#3
sample=Tuba_flatter_MF_G#3.opus

<region>
hikey=g#2
hivel=127
lokey=g2
loop_end=185504
loop_start=80099
loop_xfade=17727
lovel=0
lpc=eAB7Q85LJcRNKQ9EdbeJw//YX0Py1IvCP4tgwiBkBELDCozCx4Y6QmubxEGeIa3BBUOGQA7vNUEU8YbBQ0WZwWThsUHUb1xBoquov2J3A8HYkIXBOFagQdjTKcFm8IBA
lpc_rms=-27.31
pitch_keycenter=g#2
sample=Tuba_flatter_MF_G#2.opus

<region>
hikey=g#1
hivel=127
lokey=g1
loop_end=169161
loop_start=73042
loop_xfade=16165
lovel=0
lpc=r2lKQ2zPB8TTn+tD2TQzw9GL+0KQ/YzCdWCywTrMx0FZwK/Bw1NZQKgUA0Ju2xPCq6EkPxuvgUH7iRZApw8SwXEYGT9k5Z9BAkBHwXj/m8HLfDpB8y8xQdLwBcEo9TE/
lpc_rms=-28.69
pitch_keycenter=g#1
sample=Tuba_flatter_MF_G#1.opus

<region>
hikey=f#3
hivel=127
lokey=f3
loop_end=187141
loop_start=80806
loop_xfade=17884
lovel=0
lpc=rrY4Q+3IAMQ8VvtDNKGTwyxnhUPC6SfDW4n1QZDLrcAZNUXCcKV/QgeUhcG6YwVBttg9wABW3MBjr4ZAxwyNwPR8r0DjESTBOPAiQZkhPkFBqNDBpDshQX++i0BJBSvA
lpc_rms=-26.90
pitch_keycenter=f#3
sample=Tuba_flatter_MF_F#3.opus

<region>
hikey=f#2
hivel=127
lokey=f2
loop_end=185363
loop_start=80038
loop_xfade=17714
lovel=0
lpc=+4iLQ11tPsS8hiREg81owydCKkP2orXCirEUwplrpkGlv1rCNPv6QZmhEUId85vAPLkSwZrCoEC+PT7BtUawwUsCOEFBtetBGaLmvZxsG8HpW6zB4cxXQTPAuD+6FHi+
lpc_rms=-26.86
pitch_keycenter=f#2
sample=Tuba_flatter_MF_F#2.opus

<region>
hikey=f#1
hivel=127
lokey=f1
loop_end=162344
loop_start=70099
loop_xfade=15514
lovel=0
lpc=r9u7Q0iTZ8QqlBVEpeb8wYgFp0JxSwPC1eaHwiHCR0HEmjnCQwSWwakWY0KwWZZBS+G0wVFsHkE54YvADgjXwd/mU0HWjb5BUbzBvVnfA8F6afW/vQMMwT3PCMFsdk5B
lpc_rms=-27.03
pitch_keycenter=f#1
sample=Tuba_flatter_MF_F#1.opus

<region>
hikey=e3
hivel=127
lokey=d#3
loop_end=188190
loop_start=81259
loop_xfade=17984
lovel=0
lpc=y45gQy7YF8RUgBRENeXNw9ykv0Ntj0TDJwEwQrnANMK7s+rBmitMQlyHmcCLNcBACS5NwZvxUkEpVGfBMHmfwMfKokGbORnBHearQW+43sFIgU3ABx8yQa8KlT9yOvK/
lpc_rms=-24.63
pitch_keycenter=e3
sample=Tuba_flatter_MF_E3.opus

<region>
hikey=e2
hivel=127
lokey=d#2
loop_end=186073
loop_start=80345
loop_xfade=17782
lovel=0
lpc=8f2LQ7BJN8QhgBdECTh0wx26UUM2CaTColg8wvy8p0H7qEXCEEy2QXEs1UFcFrU/YKSCwfCZZkFtCum/5FgnwkNV4kFZ59pBa8x4wF9dgMGRvmbB9J8EQUxsz0BV5Pa/
lpc_rms=-26.71
pitch_keycenter=e2
sample=Tuba_flatter_MF_E2.opus

<region>
hivel=127
key=e1
loop_end=162003
loop_start=69951
loop_xfade=15481
lovel=0
lpc=FxyCQ9k9FsQn55pDNJ2BQpoTBUITvNTBLh86wp0jY0G9Me3AjPJuwUevg0A3JgNBQNJZwU5kNEHM81RBhikMwZOJ58A0/plBtWGfQOA1esEQpbjA7NYdwDg9JUBLYINA
lpc_rms=-32.12
sample=Tuba_flatter_MF_E1.opus

<region>
hikey=d3
hivel=127
lokey=c#3
loop_end=182651
loop_start=78867
loop_xfade=17455
lovel=0
lpc=1YnIQ9GHicTqzIREMCAgxPonBkQn13/DYU7jwYeti0KEF+vCgaaRQpbINkFyfw/CPU/sQSgYyUFhtSPCWUcHwRs810H3fo/BfSD5QebuHb95sUHCPlAtQukf4MGqyUxB
lpc_rms=-21.23
pitch_keycenter=d3
sample=Tuba_flatter_MF_D3.opus

<region>
hikey=d2
hivel=127
lokey=c#2
loop_end=176681
loop_start=76289
loop_xfade=16884
lovel=0
lpc=772wQ9aBfcSgIXFExqLIw2kdjkO5XmPDRTsCwUhNr0ISRpLCPzbpQacBEj+RkyRBobKZwUkgGUJkHqvAZ8M4wi8th0D4xEdCdQmbwd2GM8GWFlXBEMELQosI58Ei6yZB
lpc_rms=-23.48
pitch_keycenter=d2
sample=Tuba_flatter_MF_D2.opus

<region>
hikey=c3
hivel=127
lokey=b2
loop_end=188210
loop_start=81267
loop_xfade=17986
lovel=0
lpc=sxODQw9PO8Qjwz9EFVfow7fzukO+xlfDCFuQQBQEPkJdPZ3CYOedQoy81MFmQ3/B6GbXQcy2NECnRcjBwRWsQESdXkGtW1LApf3sP5IlZ77gksLBemASQtLb18GP6hVB
lpc_rms=-24.23
pitch_keycenter=c3
sample=Tuba_flatter_MF_C3.opus

<region>
hikey=c2
hivel=127
lokey=b1
loop_end=178232
loop_start=76959
loop_xfade=17032
lovel=0
lpc=txx0Q3U/LcRU9xlEiVkXw1fah0I61dvCHUcowT58WUIG5Q/CQtIaQdcriUEpZDtB6W7Rwf/2rj4Isn1BH/24wTiIu0BYgi9BqPo8QTDmgcGYk67APscXQQTPuMB2UCpA
lpc_rms=-27.83
pitch_keycenter=c2
sample=Tuba_flatter_MF_C2.opus

<region>
hikey=a#3
hivel=127
lokey=a3
loop_end=175539
loop_start=75796
loop_xfade=16775
lovel=0
lpc=CGODQ14NIMQqOONDjssRw7kIFEOhA0/BmPFewi5vAcALSljCYbrdQc0QAEIcxuTBA9lTQUysmEGPV3/Bgoe2wIwEYUA6ipvB93MjQgZXl8BkG+vBxlJ+QcbEF8E72t9A
lpc_rms=-18.38
pitch_keycenter=A#3
sample=Tuba_flatter_MF_A#3.opus

<region>
hikey=a#2
hivel=127
lokey=a2
loop_end=187656
loop_start=81028
loop_xfade=17933
lovel=0
lpc=ib6RQ3XWP8Ta6C1ErHzTwz4evkMB3CjDxC2DQRTtJUDZGbfCzYFTQh23bkFmwF3AMb1fQGWwNUEvDArBa2Qvwo9TL0KCJsZATFCzQIDogsFA6ZLBTi/GQX/XTMFUWaFA
lpc_rms=-23.83
pitch_keycenter=a#2
sample=Tuba_flatter_MF_A#2.opus

<region>
hikey=a#1
hivel=127
lokey=a1
loop_end=183369
loop_start=79177
loop_xfade=17523
lovel=0
lpc=SvSNQ01ESsSCvTpE8y2Uw0JBgEOuB17DjIymQTvY6kBXv3rBaX3HQcNn90DlK+9A4aeLwdc430Hv74fBAqNTwr+jXEJmTNdBu/JEwnM8uj8jyF5Bt/KrQd8dEsJNnF5B
lpc_rms=-24.94
pitch_keycenter=a#1
sample=Tuba_flatter_MF_A#1.opus

<group>
group_label=FF
lpc_hicc1=127
lpc_locc1=85

<region>
hikey=g#3
hivel=127
lokey=g3
loop_end=185175
loop_start=79957
loop_xfade=17696
lovel=0
lpc=UzUIQ0Oa08PkRO9DB5yGwwMGKkO5qRLD8WGIQrlMHMLl+hxCu6aewXYTq0EDmtLBPbWeQZK1MsGGkxjB8NW9QanilMFwpidBO5ocwfZ/tUETqO/B74RGQYdBhUDVPUvA
lpc_rms=-25.12
pitch_keycenter=g#3
sample=Tuba_flatter_FF_G#3.opus

<region>
hikey=g#2
hivel=127
lokey=g2
loop_end=178272
loop_start=76977
loop_xfade=17036
lovel=0
lpc=CQxGQ2vuG8RZpDhEVA7qw4PkmEPTM3XD96/xQtKy28HXtrrB4CIoQlGD6MCsk7XBClupQfuQncBGipHBFu+aQW1ipMDZnMNApaLrv2644sD0HhbBoiXgQeMeoMGR75dA
lpc_rms=-23.66
pitch_keycenter=g#2
sample=Tuba_flatter_FF_G#2.opus

<region>
hikey=g#1
hivel=127
lokey=g1
loop_end=149417
loop_start=64517
loop_xfade=14279
lovel=0
lpc=Zd4pQ2bNA8QncRVEVn+jw5vGMUPyhhPDodVpQuOM1sB3G+q/JKm8Qd7hjMDFTBfCaXwCQiH/r8A2Hc7Am4cQQBULkEA+rYhAHPq2wGtZosDXPgPBd/wIQqAs8MF8jwRB
lpc_rms=-25.30
pitch_keycenter=g#1
sample=Tuba_flatter_FF_G#1.opus

<region>
hikey=f#3
hivel=127
lokey=f3
loop_end=180645
loop_start=78001
loop_xfade=17263
lovel=0
lpc=lcb3Qh7i1MO7IhFEFifWwwwBjkPQ04rDOZhoQzpXBMOue5NCShVjwiwuTkKOoB/C5DbTQOrUAkI2CzjC35n3QblDhcFkYYNBuCuDwdsdkUH2aNzB0m/fQTJRXcHO1CVA
lpc_rms=-23.93
pitch_keycenter=f#3
sample=Tuba_flatter_FF_F#3.opus

<region>
hikey=f#2
hivel=127
lokey=f2
loop_end=164547
loop_start=71050
loop_xfade=15724
lovel=0
lpc=9pcSQ6Yc88M8FCBEuWnjw1Dyf0Opkj3DyZALQ20EjsKRANBBxxyBwYd6qUFMb03B2HgvwT7LCkLXPzzCe3QWQiq7hsGvxpBAFdwFQBwNwj6ytZXB1bzzQWDEmMEUUoNA
lpc_rms=-23.81
pitch_keycenter=f#2
sample=Tuba_flatter_FF_F#2.opus

<region>
hikey=f#1
hivel=127
lokey=f1
loop_end=139126
loop_start=60073
loop_xfade=13295
lovel=0
lpc=QOphQ8rWMcT7IUlEu5jEwyn4IUNw1DjDkFLvQv2e+r/TV0PCtNAmQmSHFsEU5QbByAg3QJSJh0FdoRPCB1ORQXqYo0GKc/DBpqV9QV6Xi0FNNUvCrb5CQijtscElD35A
lpc_rms=-24.14
pitch_keycenter=f#1
sample=Tuba_flatter_FF_F#1.opus

<region>
hikey=e3
hivel=127
lokey=d#3
loop_end=185739
loop_start=80201
loop_xfade=17750
lovel=0
lpc=bsNFQxaYF8RUQTNEk2cKxObcBURq7u/DTJGVQyWrPcOno9VCzU5qwk8TjEK5PE/CBGacQSxFAkE5EyTCQng2QuUMCsI1jvVBNuycwaUqDEFj0HjBK8v1Qff46sGIailB
lpc_rms=-20.79
pitch_keycenter=e3
sample=Tuba_flatter_FF_E3.opus

<region>
hikey=e2
hivel=127
lokey=d#2
loop_end=170569
loop_start=73650
loop_xfade=16300
lovel=0
lpc=gcIPQ23p8MNDOCBEUo7rw0t6mUPIoYPDWdtGQxk48sI4c7NCDESYwt7FaEJYyTTCC1cGQkeDGsEyGaXBhJr3QQiSr8Gd3D9B67W8vtNJMUBqWefBKekkQuYutMFlZH9A
lpc_rms=-23.19
pitch_keycenter=e2
sample=Tuba_flatter_FF_E2.opus

<region>
hivel=127
key=e1
loop_end=121655
loop_start=52530
loop_xfade=11625
lovel=0
lpc=wRsQQ7Rl3MNU9ulDcaI3w1KWRUJyEavC8UdMQnaGpUD58y3BvJYCQbJZ4sDJU51A9S4LwDjhVr96whXBjWF6QWD3w8Dm2HS/GMjhQJmphsBdpk3BxzGMQQL/ucD3ORK/
lpc_rms=-29.09
sample=Tuba_flatter_FF_E1.opus

<region>
hikey=d3
hivel=127
lokey=c#3
loop_end=177201
loop_start=76514
loop_xfade=16934
lovel=0
lpc=E8SNQxtKZcR8tpREnS51xOwnV0QhtjrEX+PfQwAmK8N2AzhBYzJXQgRobsJrR1xCMsYhwvC7/UE+hCLC22vGQUnMRkHDYbjBZikKQRAbQ0G/1gvCy6ZAQiUKFsJ9PEVB
lpc_rms=-18.03
pitch_keycenter=d3
sample=Tuba_flatter_FF_D3.opus

<region>
hikey=d2
hivel=127
lokey=c#2
loop_end=158148
loop_start=68287
loop_xfade=15113
lovel=0
lpc=Dvg2QykgJMTR73RE3SdRxH9OB0TfWbfDF3lzQ3pC0MIm5Uo/apb3QfdV28FwtcRBsEagwYcIi0G+OrLBdsw9QTLuWEFWQeTBsYbpQTOELcFw4qXBhakMQhy/rsGNs51A
lpc_rms=-21.10
pitch_keycenter=d2
sample=Tuba_flatter_FF_D2.opus

<region>
hikey=c3
hivel=127
lokey=b2
loop_end=183113
loop_start=79067
loop_xfade=17499
lovel=0
lpc=ec1cQ7RCLcRT00tEO4YFxOmhzUMAHbfD8R0/Q4k/dsJVHPC9CLwEQp5Ed8GiUJo/aACXwLJIsUFmWVPCra0lQiIULMEn3JFBHzpXwXfn5cCOCBrBAir8QX4qs8Fo1K9A
lpc_rms=-21.49
pitch_keycenter=c3
sample=Tuba_flatter_FF_C3.opus

<region>
hikey=c2
hivel=127
lokey=b1
loop_end=155077
loop_start=66961
loop_xfade=14819
lovel=0
lpc=99HfQkGFx8O7ixREjs/zw2whgkP3rQXDFDnfQgpa3cJxqK9C0OJIwkV9wEGKbn/BvVgZQcepBEEIlc/BG4+TQSGmx0C4tJ7Bw+VYQY9VIUFhdATCU7YAQhTHVMEqUbk/
lpc_rms=-24.37
pitch_keycenter=c2
sample=Tuba_flatter_FF_C2.opus

<region>
hikey=a#3
hivel=127
lokey=a3
loop_end=175679
loop_start=75857
loop_xfade=16788
lovel=0
lpc=tZMaQ8IR7cOpbQZEL+Ghw5dEUkOsyx3D0ValQgmVkMKQtItCC+9HwjyhPUKjoDDCXrE9QtKmT8JtzghCPR9bwf/EhkD+wyPANfznQLVOAMAdA13BYTWpQbFNZsHSGINA
lpc_rms=-19.29
pitch_keycenter=A#3
sample=Tuba_flatter_FF_A#3.opus

<region>
hikey=a#2
hivel=127
lokey=a2
loop_end=182787
loop_start=78926
loop_xfade=17468
lovel=0
lpc=6w50Q6jBOcSHhlVEJvwVxPlw9kMqerXD/FcxQxnz0cJaEMZBFoQcQX7TDELkLyXCo1XmQVcNdsAIAAXCC5fnQRCna8HZwYNBbeinv84nJsGKaTHBY8MWQiDGCMLL6jJB
lpc_rms=-20.94
pitch_keycenter=a#2
sample=Tuba_flatter_FF_A#2.opus

<region>
hikey=a#1
hivel=127
lokey=a1
loop_end=148123
loop_start=63958
loop_xfade=14155
lovel=0
lpc=y5gDQwJP2MMDGQdEddChw252EkNZ7gjD+YfwQgWQncLME4dCjVtnwjDiPELcYEvCgEonQrGV9MCwB5/B7dgwQZYIo0DuPkO/HhKKQHB0EcGRWkHB0NfrQavOkMGxLUpA
lpc_rms=-22.43
pitch_keycenter=a#1
sample=Tuba_flatter_FF_A#1.opus

